<svg width="17" height="22" viewBox="0 0 17 22" fill="none" xmlns="http://www.w3.org/2000/svg">
<path d="M13.9933 0.561581H3.20502C1.58888 0.561581 0.266602 1.87337 0.266602 3.49999V18.6014C0.266602 20.228 1.58888 21.5503 3.20502 21.5503H13.9933C15.6199 21.5503 16.9317 20.228 16.9317 18.6014V3.49999C16.9317 1.87337 15.6199 0.561581 13.9933 0.561581ZM4.28597 15.705H12.9123C13.3531 15.705 13.6994 16.0618 13.6994 16.4921C13.6994 16.9223 13.3531 17.2791 12.9123 17.2791H4.28597C3.8557 17.2791 3.49889 16.9223 3.49889 16.4921C3.49889 16.0618 3.8557 15.705 4.28597 15.705ZM3.49889 11.0979C3.49889 10.6677 3.8557 10.3109 4.28597 10.3109H12.9123C13.3531 10.3109 13.6994 10.6677 13.6994 11.0979C13.6994 11.5387 13.3531 11.885 12.9123 11.885H4.28597C3.8557 11.885 3.49889 11.5387 3.49889 11.0979ZM12.9123 6.4909H4.28597C3.8557 6.4909 3.49889 6.14459 3.49889 5.70382C3.49889 5.27355 3.8557 4.91674 4.28597 4.91674H12.9123C13.3531 4.91674 13.6994 5.27355 13.6994 5.70382C13.6994 6.14459 13.3531 6.4909 12.9123 6.4909Z" fill="black"/>
</svg>
