<svg width="24" height="11" viewBox="0 0 24 11" fill="none" xmlns="http://www.w3.org/2000/svg">
    <g clip-path="url(#zrovnxdlxa)" stroke="#CBD5E0" stroke-width="2" stroke-linecap="round" stroke-linejoin="round">
        <path d="M11 5.615c0 .247.448.446 1 .446s1-.2 1-.446-.448-.445-1-.445-1 .2-1 .445zM4 5.615c0 .247.448.446 1 .446s1-.2 1-.446-.448-.445-1-.445-1 .2-1 .445zM18 5.615c0 .247.448.446 1 .446s1-.2 1-.446-.448-.445-1-.445-1 .2-1 .445z"/>
    </g>
    <defs>
        <clipPath id="zrovnxdlxa">
            <path fill="#fff" transform="rotate(90 11.867 12.133)" d="M0 0h10.699v24H0z"/>
        </clipPath>
    </defs>
</svg>
